<svg width="36" height="38" viewBox="0 0 36 38" fill="none" xmlns="http://www.w3.org/2000/svg">
<path fill-rule="evenodd" clip-rule="evenodd" d="M20.7797 10.6616L14.465 12.5596L13.311 11.261L19.9529 9.39929L20.7797 10.6616Z" fill="#0373FF"/>
<path fill-rule="evenodd" clip-rule="evenodd" d="M20.7797 10.6616L14.465 12.5596L13.311 11.261L19.9529 9.39929L20.7797 10.6616Z" fill="#0373FF"/>
<path fill-rule="evenodd" clip-rule="evenodd" d="M23.4418 10.1258L17.2361 0L0 1.09886L2.1988 3.44187L16.173 1.67099L21.6973 10.589L23.4418 10.1258Z" fill="#0373FF"/>
<path fill-rule="evenodd" clip-rule="evenodd" d="M23.4418 10.1258L17.2361 0L0 1.09886L2.1988 3.44187L16.173 1.67099L21.6973 10.589L23.4418 10.1258Z" fill="#0373FF"/>
<path fill-rule="evenodd" clip-rule="evenodd" d="M16.7183 4.4045L5.88782 6.40242L4.01611 4.29552L15.6643 2.76984L16.7183 4.4045Z" fill="#0373FF"/>
<path fill-rule="evenodd" clip-rule="evenodd" d="M16.7183 4.4045L5.88782 6.40242L4.01611 4.29552L15.6643 2.76984L16.7183 4.4045Z" fill="#0373FF"/>
<path fill-rule="evenodd" clip-rule="evenodd" d="M18.0449 6.43876L8.85899 8.70005L7.49609 7.1562L17.3271 5.3399L18.0449 6.43876Z" fill="#0373FF"/>
<path fill-rule="evenodd" clip-rule="evenodd" d="M18.0449 6.43876L8.85899 8.70005L7.49609 7.1562L17.3271 5.3399L18.0449 6.43876Z" fill="#0373FF"/>
<path fill-rule="evenodd" clip-rule="evenodd" d="M19.3804 8.51838L11.7846 10.6434L10.6216 9.32663L18.6354 7.35596L19.3804 8.51838Z" fill="#0373FF"/>
<path fill-rule="evenodd" clip-rule="evenodd" d="M19.3804 8.51838L11.7846 10.6434L10.6216 9.32663L18.6354 7.35596L19.3804 8.51838Z" fill="#0373FF"/>
<path fill-rule="evenodd" clip-rule="evenodd" d="M35.408 10.9977L17.2361 13.7403L16.7637 12.8866L24.9229 10.7161L22.079 5.93929L26.8491 5.86664L34.136 10.1894L35.2808 10.7252L35.408 10.9977Z" fill="#0373FF"/>
<path fill-rule="evenodd" clip-rule="evenodd" d="M35.408 10.9977L17.2361 13.7403L16.7637 12.8866L24.9229 10.7161L22.079 5.93929L26.8491 5.86664L34.136 10.1894L35.2808 10.7252L35.408 10.9977Z" fill="#0373FF"/>
<path fill-rule="evenodd" clip-rule="evenodd" d="M33.7179 12.3054L30.2017 24.0296L23.8142 23.8661L12.5295 37.788L9.38574 20.7875L18.0628 15.2841L33.7179 12.3054Z" fill="#0373FF"/>
<path fill-rule="evenodd" clip-rule="evenodd" d="M33.7179 12.3054L30.2017 24.0296L23.8142 23.8661L12.5295 37.788L9.38574 20.7875L18.0628 15.2841L33.7179 12.3054Z" fill="#0373FF"/>
</svg>
