<svg width="25" height="26" viewBox="0 0 25 26" fill="none" xmlns="http://www.w3.org/2000/svg">
<path d="M12.6 0C14.808 0 16.776 0.42 18.504 1.26C20.256 2.076 21.672 3.24 22.752 4.752C23.856 6.264 24.588 8.028 24.948 10.044H16.524C16.14 9.204 15.588 8.556 14.868 8.1C14.172 7.62 13.368 7.38 12.456 7.38C11.112 7.38 10.044 7.884 9.252 8.892C8.484 9.9 8.1 11.256 8.1 12.96C8.1 14.664 8.484 16.02 9.252 17.028C10.044 18.036 11.112 18.54 12.456 18.54C13.368 18.54 14.172 18.312 14.868 17.856C15.588 17.376 16.14 16.716 16.524 15.876H24.948C24.588 17.892 23.856 19.656 22.752 21.168C21.672 22.68 20.256 23.856 18.504 24.696C16.776 25.512 14.808 25.92 12.6 25.92C10.032 25.92 7.8 25.38 5.904 24.3C4.008 23.196 2.544 21.66 1.512 19.692C0.504 17.724 0 15.48 0 12.96C0 10.44 0.504 8.196 1.512 6.228C2.544 4.26 4.008 2.736 5.904 1.656C7.8 0.552 10.032 0 12.6 0Z" fill="white"/>
</svg>
