<svg width="20" height="22" viewBox="0 0 20 22" fill="none" xmlns="http://www.w3.org/2000/svg">
<g clip-path="url(#clip0_3_11833)">
<path fill-rule="evenodd" clip-rule="evenodd" d="M11.7372 5.93984L8.17034 6.99728L7.51855 6.27377L11.2702 5.23657L11.7372 5.93984Z" fill="white"/>
<path fill-rule="evenodd" clip-rule="evenodd" d="M11.7372 5.93984L8.17034 6.99728L7.51855 6.27377L11.2702 5.23657L11.7372 5.93984Z" fill="white"/>
<path fill-rule="evenodd" clip-rule="evenodd" d="M13.241 5.64136L9.73569 0L0 0.612201L1.24198 1.91756L9.13523 0.93095L12.2556 5.89939L13.241 5.64136Z" fill="white"/>
<path fill-rule="evenodd" clip-rule="evenodd" d="M13.241 5.64136L9.73569 0L0 0.612201L1.24198 1.91756L9.13523 0.93095L12.2556 5.89939L13.241 5.64136Z" fill="white"/>
<path fill-rule="evenodd" clip-rule="evenodd" d="M9.44306 2.45386L3.32553 3.56696L2.26831 2.39315L8.84773 1.54315L9.44306 2.45386Z" fill="white"/>
<path fill-rule="evenodd" clip-rule="evenodd" d="M9.44306 2.45386L3.32553 3.56696L2.26831 2.39315L8.84773 1.54315L9.44306 2.45386Z" fill="white"/>
<path fill-rule="evenodd" clip-rule="evenodd" d="M10.1926 3.58718L5.00395 4.847L4.23413 3.98688L9.78712 2.97498L10.1926 3.58718Z" fill="white"/>
<path fill-rule="evenodd" clip-rule="evenodd" d="M10.1926 3.58718L5.00395 4.847L4.23413 3.98688L9.78712 2.97498L10.1926 3.58718Z" fill="white"/>
<path fill-rule="evenodd" clip-rule="evenodd" d="M10.9469 4.74582L6.65643 5.92975L5.99951 5.19612L10.5261 4.09821L10.9469 4.74582Z" fill="white"/>
<path fill-rule="evenodd" clip-rule="evenodd" d="M10.9469 4.74582L6.65643 5.92975L5.99951 5.19612L10.5261 4.09821L10.9469 4.74582Z" fill="white"/>
<path fill-rule="evenodd" clip-rule="evenodd" d="M19.9999 6.12706L9.73562 7.65503L9.46875 7.17944L14.0774 5.97021L12.4711 3.30891L15.1654 3.26843L19.2814 5.67676L19.9281 5.97527L19.9999 6.12706Z" fill="white"/>
<path fill-rule="evenodd" clip-rule="evenodd" d="M19.9999 6.12706L9.73562 7.65503L9.46875 7.17944L14.0774 5.97021L12.4711 3.30891L15.1654 3.26843L19.2814 5.67676L19.9281 5.97527L19.9999 6.12706Z" fill="white"/>
<path fill-rule="evenodd" clip-rule="evenodd" d="M19.0454 6.85565L17.0593 13.3875L13.4514 13.2964L7.07724 21.0526L5.30151 11.5812L10.2027 8.51517L19.0454 6.85565Z" fill="white"/>
<path fill-rule="evenodd" clip-rule="evenodd" d="M19.0454 6.85565L17.0593 13.3875L13.4514 13.2964L7.07724 21.0526L5.30151 11.5812L10.2027 8.51517L19.0454 6.85565Z" fill="white"/>
</g>
<defs>
<clipPath id="clip0_3_11833">
<rect width="20" height="21.0526" fill="white"/>
</clipPath>
</defs>
</svg>
