<svg width="150" height="38" viewBox="0 0 150 38" fill="none" xmlns="http://www.w3.org/2000/svg">
<path fill-rule="evenodd" clip-rule="evenodd" d="M20.7796 10.6616L14.4648 12.5596L13.3109 11.261L19.9527 9.39929L20.7796 10.6616Z" fill="white"/>
<path fill-rule="evenodd" clip-rule="evenodd" d="M20.7796 10.6616L14.4648 12.5596L13.3109 11.261L19.9527 9.39929L20.7796 10.6616Z" fill="white"/>
<path fill-rule="evenodd" clip-rule="evenodd" d="M23.4418 10.1258L17.2361 0L0 1.09886L2.1988 3.44187L16.173 1.67099L21.6973 10.589L23.4418 10.1258Z" fill="white"/>
<path fill-rule="evenodd" clip-rule="evenodd" d="M23.4418 10.1258L17.2361 0L0 1.09886L2.1988 3.44187L16.173 1.67099L21.6973 10.589L23.4418 10.1258Z" fill="white"/>
<path fill-rule="evenodd" clip-rule="evenodd" d="M16.7182 4.40444L5.8877 6.40236L4.01599 4.29546L15.6642 2.76978L16.7182 4.40444Z" fill="white"/>
<path fill-rule="evenodd" clip-rule="evenodd" d="M16.7182 4.40444L5.8877 6.40236L4.01599 4.29546L15.6642 2.76978L16.7182 4.40444Z" fill="white"/>
<path fill-rule="evenodd" clip-rule="evenodd" d="M18.0447 6.43882L8.8588 8.70011L7.49591 7.15626L17.3269 5.33997L18.0447 6.43882Z" fill="white"/>
<path fill-rule="evenodd" clip-rule="evenodd" d="M18.0447 6.43882L8.8588 8.70011L7.49591 7.15626L17.3269 5.33997L18.0447 6.43882Z" fill="white"/>
<path fill-rule="evenodd" clip-rule="evenodd" d="M19.3803 8.51838L11.7845 10.6434L10.6215 9.32663L18.6353 7.35596L19.3803 8.51838Z" fill="white"/>
<path fill-rule="evenodd" clip-rule="evenodd" d="M19.3803 8.51838L11.7845 10.6434L10.6215 9.32663L18.6353 7.35596L19.3803 8.51838Z" fill="white"/>
<path fill-rule="evenodd" clip-rule="evenodd" d="M35.408 10.9977L17.2361 13.7403L16.7636 12.8867L24.9228 10.7162L22.0789 5.93935L26.849 5.8667L34.136 10.1895L35.2808 10.7253L35.408 10.9977Z" fill="white"/>
<path fill-rule="evenodd" clip-rule="evenodd" d="M35.408 10.9977L17.2361 13.7403L16.7636 12.8867L24.9228 10.7162L22.0789 5.93935L26.849 5.8667L34.136 10.1895L35.2808 10.7253L35.408 10.9977Z" fill="white"/>
<path fill-rule="evenodd" clip-rule="evenodd" d="M33.718 12.3054L30.2017 24.0296L23.8143 23.8661L12.5295 37.788L9.3858 20.7875L18.0629 15.2841L33.718 12.3054Z" fill="white"/>
<path fill-rule="evenodd" clip-rule="evenodd" d="M33.718 12.3054L30.2017 24.0296L23.8143 23.8661L12.5295 37.788L9.3858 20.7875L18.0629 15.2841L33.718 12.3054Z" fill="white"/>
<path d="M44.285 24.52V13.1228C44.285 12.587 44.285 12.0784 44.2668 11.6152H47.1016C47.1016 11.706 47.1016 11.9512 47.0925 12.369C47.0925 12.7867 47.0743 13.2681 47.0562 13.822C47.038 14.376 47.0289 14.9209 47.0198 15.4749C47.0198 16.0197 47.0016 16.5011 46.9835 16.9188C46.9653 17.3366 46.9653 17.5908 46.9653 17.6907L46.7927 18.5171L47.0562 21.5049V25.7641C47.0562 26.1456 47.0562 26.4997 47.0653 26.8448C47.0653 27.1899 47.0743 27.5532 47.0743 27.9437H44.2577C44.2759 27.4079 44.2759 26.8902 44.2759 26.3908V24.5109L44.285 24.52ZM58.459 22.9943V25.7914C58.459 26.1365 58.459 26.4907 58.4681 26.8358C58.4681 27.1809 58.4772 27.5532 58.4772 27.9528H55.706C55.7242 27.5895 55.7242 27.2535 55.7242 26.9447V21.178C55.7242 20.4606 55.6606 19.8794 55.5424 19.4071C55.4152 18.944 55.1972 18.5625 54.8883 18.281C54.5793 17.9995 54.1432 17.7906 53.589 17.6726C53.0347 17.5545 52.3169 17.4909 51.4265 17.4909C50.5361 17.4909 49.8365 17.5545 49.2641 17.6726C48.6916 17.7906 48.2464 18.0086 47.9193 18.3083C47.5922 18.608 47.3651 19.0166 47.2379 19.5343C47.1107 20.0519 47.0562 20.7058 47.0562 21.514L46.0113 20.8602C46.0567 19.843 46.2112 18.9621 46.4656 18.2175C46.7291 17.4728 47.1016 16.8643 47.5922 16.3921C48.0829 15.9198 48.728 15.5657 49.5457 15.3296C50.3635 15.0934 51.3629 14.9845 52.535 14.9845C53.7071 14.9845 54.7156 15.0753 55.4879 15.2569C56.2602 15.4385 56.869 15.7291 57.3142 16.1287C57.7594 16.5283 58.0683 17.0459 58.2319 17.6726C58.3954 18.2992 58.4863 19.0439 58.4863 19.9248V20.7693C58.4863 21.0509 58.4863 21.3687 58.4772 21.7047C58.4772 22.0498 58.4681 22.4767 58.4681 23.0034L58.459 22.9943Z" fill="white"/>
<path d="M68.7988 28.2161C67.3269 28.2161 66.1094 28.1162 65.1281 27.9073C64.1559 27.7075 63.3836 27.3625 62.8203 26.8902C62.2569 26.418 61.8572 25.7732 61.6118 24.9559C61.3665 24.1385 61.2393 23.1305 61.2393 21.9227V21.2688C61.2393 20.0428 61.3574 19.0348 61.6028 18.2265C61.839 17.4183 62.2479 16.7826 62.8021 16.3012C63.3563 15.8199 64.1196 15.493 65.0736 15.2841C66.0276 15.0752 67.227 14.9753 68.6716 14.9753C70.1163 14.9753 71.3247 15.0752 72.2515 15.2841C73.1783 15.493 73.9233 15.829 74.4685 16.3012C75.0136 16.7735 75.4043 17.4183 75.6496 18.2265C75.8859 19.0348 76.0131 20.0519 76.0131 21.2688C76.0313 21.3959 76.0312 21.5322 76.0222 21.6684C76.0131 21.8046 76.0131 21.9317 76.0131 22.0498V22.4221H63.1928V20.3879H74.7047L73.151 21.8046V20.9055C73.151 20.179 73.0965 19.5706 72.9784 19.0711C72.8603 18.5807 72.6513 18.1902 72.3424 17.9177C72.0334 17.6453 71.5882 17.4455 71.0067 17.3184C70.4252 17.1912 69.6529 17.1367 68.6898 17.1367C67.7267 17.1367 66.9362 17.1912 66.3184 17.3093C65.7005 17.4273 65.2281 17.6362 64.901 17.9541C64.5739 18.2719 64.3467 18.6987 64.2195 19.2436C64.0923 19.7885 64.0287 20.4878 64.0287 21.3324V21.6775C64.0287 22.5039 64.0923 23.1941 64.2195 23.7299C64.3467 24.2657 64.5739 24.6925 64.91 25.0104C65.2462 25.3282 65.7278 25.5462 66.3638 25.6733C66.9998 25.8004 67.8175 25.8731 68.8261 25.8731C69.8346 25.8731 70.6069 25.8277 71.1884 25.746C71.7699 25.6551 72.2151 25.528 72.5241 25.3373C72.833 25.1557 73.0329 24.9195 73.1328 24.638C73.2328 24.3565 73.2873 24.0205 73.2873 23.6481L76.0222 23.7389C76.0222 24.5381 75.9222 25.2192 75.7132 25.7914C75.5043 26.3635 75.1499 26.8176 74.6229 27.1808C74.0959 27.535 73.3781 27.7984 72.4514 27.9709C71.5246 28.1344 70.3162 28.2252 68.817 28.2252L68.7988 28.2161Z" fill="white"/>
<path d="M78.8207 24.6289V16.5736C78.8207 16.1195 78.8207 15.6745 78.8025 15.2386H81.4283L81.4738 17.6815L81.3466 18.508L81.61 21.7137V25.9638C81.61 26.3362 81.61 26.6813 81.6191 26.99C81.6191 27.2988 81.6282 27.6167 81.6282 27.9436H78.8116C78.8297 27.6257 78.8297 27.2988 78.8297 26.981V24.6198L78.8207 24.6289ZM80.5652 20.9599C80.6106 19.9519 80.7469 19.0801 80.9831 18.3263C81.2193 17.5726 81.5646 16.955 82.0189 16.4555C82.4732 15.9651 83.0729 15.5928 83.7998 15.3385C84.5266 15.0842 85.4171 14.9662 86.4619 14.9662C87.5068 14.9662 88.3427 15.0388 88.9969 15.1751C89.6511 15.3113 90.169 15.5474 90.5415 15.8653C90.9141 16.1831 91.1776 16.619 91.332 17.1639C91.4865 17.7088 91.5592 18.4081 91.5592 19.2526V19.9519C91.5592 20.188 91.5592 20.4241 91.541 20.6693L88.897 20.7147V20.0336C88.897 19.5069 88.8606 19.0892 88.7789 18.7713C88.6971 18.4535 88.5426 18.1901 88.3064 17.9994C88.0702 17.7996 87.734 17.6725 87.2797 17.5998C86.8254 17.5272 86.2257 17.4908 85.4625 17.4908C84.6993 17.4908 84.0996 17.5453 83.5908 17.6634C83.0911 17.7814 82.6913 17.9903 82.4005 18.2991C82.1098 18.6079 81.9008 19.0347 81.7827 19.5796C81.6555 20.1245 81.5919 20.8419 81.5919 21.7319L80.5652 20.969V20.9599Z" fill="white"/>
<path d="M94.1123 24.6289V16.5736C94.1123 16.1196 94.1123 15.6746 94.0941 15.2387H96.72L96.7654 17.6816L96.6382 18.508L96.9017 21.4958V25.9639C96.9017 26.3362 96.9017 26.6813 96.9108 26.9901C96.9108 27.2988 96.9198 27.6167 96.9198 27.9436H94.1032C94.1214 27.6258 94.1214 27.2988 94.1214 26.981V24.6198L94.1123 24.6289ZM106.742 21.5049V26.2181C106.742 26.7267 106.742 27.2988 106.76 27.9436H103.989C104.007 27.5985 104.007 27.2625 104.007 26.9537V20.5422C104.007 19.7431 103.907 19.1255 103.716 18.6896C103.516 18.2537 103.18 17.9449 102.689 17.7633C102.199 17.5817 101.517 17.4909 100.645 17.4909C99.9273 17.4909 99.3276 17.5544 98.8461 17.6725C98.3645 17.7905 97.9647 18.0085 97.674 18.3082C97.3832 18.6079 97.1833 19.0165 97.0652 19.5342C96.9471 20.0518 96.8926 20.7057 96.8926 21.5139L95.8841 20.8601C95.9386 19.8702 96.093 19.0075 96.3293 18.2809C96.5655 17.5544 96.9198 16.946 97.3741 16.4465C97.8284 15.947 98.4281 15.5838 99.155 15.3476C99.8819 15.1115 100.763 14.9844 101.799 14.9844C103.098 14.9844 104.107 15.1297 104.825 15.4112C105.542 15.6927 106.051 16.1559 106.351 16.7825C106.651 17.4182 106.796 18.2537 106.796 19.3071L106.578 19.8339L106.733 21.5139L106.742 21.5049ZM116.664 23.3212V26.2363C116.664 26.7358 116.664 27.3079 116.682 27.9527H113.865C113.883 27.6076 113.883 27.2716 113.883 26.9628V20.5513C113.883 19.7521 113.783 19.1346 113.593 18.6987C113.393 18.2628 113.057 17.954 112.566 17.7724C112.075 17.5908 111.403 17.4999 110.549 17.4999C109.831 17.4999 109.24 17.5635 108.759 17.6816C108.277 17.8087 107.896 18.0176 107.605 18.3173C107.314 18.617 107.096 19.0256 106.96 19.5433C106.824 20.0609 106.751 20.7148 106.751 21.523L105.815 20.8692C105.842 19.8974 105.979 19.0438 106.206 18.3173C106.442 17.5908 106.778 16.9823 107.232 16.4828C107.687 15.9924 108.268 15.6201 108.995 15.3658C109.713 15.1206 110.603 14.9935 111.648 14.9935C112.957 14.9935 113.983 15.1388 114.719 15.4294C115.455 15.72 115.964 16.1922 116.255 16.837C116.546 17.4818 116.691 18.3354 116.691 19.3798V20.3606C116.691 20.7239 116.691 21.1507 116.682 21.6229C116.682 22.1042 116.673 22.6673 116.673 23.3302L116.664 23.3212Z" fill="white"/>
<path d="M126.994 28.2161C125.522 28.2161 124.305 28.1162 123.324 27.9073C122.351 27.7075 121.579 27.3625 121.016 26.8902C120.452 26.418 120.053 25.7732 119.807 24.9559C119.562 24.1385 119.435 23.1305 119.435 21.9227V21.2688C119.435 20.0428 119.553 19.0348 119.798 18.2265C120.034 17.4183 120.443 16.7826 120.998 16.3012C121.552 15.8199 122.315 15.493 123.269 15.2841C124.223 15.0752 125.422 14.9753 126.867 14.9753C128.312 14.9753 129.52 15.0752 130.447 15.2841C131.374 15.493 132.119 15.829 132.664 16.3012C133.209 16.7735 133.6 17.4183 133.845 18.2265C134.081 19.0348 134.209 20.0519 134.209 21.2688C134.227 21.3959 134.227 21.5322 134.218 21.6684C134.209 21.8046 134.209 21.9317 134.209 22.0498V22.4221H121.388V20.3879H132.9L131.346 21.8046V20.9055C131.346 20.179 131.292 19.5706 131.174 19.0711C131.056 18.5807 130.847 18.1902 130.538 17.9177C130.229 17.6453 129.784 17.4455 129.202 17.3184C128.621 17.1912 127.848 17.1367 126.885 17.1367C125.922 17.1367 125.132 17.1912 124.514 17.3093C123.896 17.4273 123.424 17.6362 123.096 17.9541C122.769 18.2719 122.542 18.6987 122.415 19.2436C122.288 19.7885 122.224 20.4878 122.224 21.3324V21.6775C122.224 22.5039 122.288 23.1941 122.415 23.7299C122.542 24.2657 122.769 24.6925 123.106 25.0104C123.442 25.3282 123.923 25.5462 124.559 25.6733C125.195 25.8004 126.013 25.8731 127.022 25.8731C128.03 25.8731 128.802 25.8277 129.384 25.746C129.965 25.6551 130.411 25.528 130.72 25.3373C131.028 25.1557 131.228 24.9195 131.328 24.638C131.428 24.3565 131.483 24.0205 131.483 23.6481L134.218 23.7389C134.218 24.5381 134.118 25.2192 133.909 25.7914C133.7 26.3635 133.345 26.8176 132.818 27.1808C132.291 27.535 131.574 27.7984 130.647 27.9709C129.72 28.1344 128.512 28.2252 127.012 28.2252L126.994 28.2161Z" fill="white"/>
<path d="M143.267 28.2161C141.75 28.2161 140.532 28.1525 139.606 28.0254C138.679 27.8983 137.961 27.6803 137.452 27.3715C136.943 27.0628 136.589 26.6178 136.407 26.0456C136.217 25.4826 136.126 24.747 136.126 23.8388L138.833 23.7753V24.084C138.833 24.4655 138.888 24.7833 138.988 25.0467C139.088 25.31 139.288 25.5098 139.587 25.6551C139.887 25.8004 140.342 25.9094 140.941 25.973C141.541 26.0366 142.331 26.0729 143.313 26.0729C144.176 26.0729 144.866 26.0456 145.384 25.9821C145.911 25.9276 146.302 25.8277 146.565 25.7096C146.829 25.5825 147.002 25.4281 147.092 25.2374C147.183 25.0467 147.22 24.8196 147.22 24.5381C147.22 24.2566 147.174 24.0568 147.074 23.8752C146.974 23.6935 146.784 23.5301 146.475 23.3848C146.166 23.2395 145.693 23.1123 145.057 23.0034C144.412 22.8944 143.558 22.7854 142.477 22.6855C141.168 22.5584 140.105 22.3949 139.288 22.2133C138.47 22.0316 137.843 21.7955 137.407 21.5049C136.971 21.2143 136.671 20.851 136.526 20.4151C136.371 19.9792 136.298 19.4434 136.298 18.7986C136.298 18.1175 136.389 17.5272 136.58 17.0368C136.771 16.5464 137.098 16.1559 137.57 15.8562C138.043 15.5566 138.706 15.3386 139.56 15.1933C140.414 15.048 141.496 14.9753 142.804 14.9753C144.249 14.9753 145.402 15.048 146.284 15.1842C147.165 15.3204 147.838 15.5566 148.301 15.8835C148.764 16.2104 149.091 16.6372 149.264 17.1458C149.437 17.6635 149.528 18.3082 149.528 19.0802L146.774 19.1437V18.835C146.774 18.5444 146.729 18.2901 146.629 18.0721C146.538 17.8542 146.347 17.6816 146.075 17.5636C145.802 17.4364 145.393 17.3456 144.866 17.282C144.339 17.2185 143.622 17.1821 142.74 17.1821C141.95 17.1821 141.314 17.2094 140.814 17.273C140.314 17.3274 139.933 17.4183 139.66 17.5272C139.388 17.6362 139.197 17.7906 139.106 17.9722C139.015 18.1629 138.961 18.3809 138.961 18.6261C138.961 18.8713 138.997 19.0802 139.079 19.2618C139.16 19.4434 139.342 19.5887 139.624 19.7159C139.905 19.843 140.342 19.9611 140.923 20.061C141.505 20.1609 142.304 20.2608 143.322 20.3425C144.776 20.4878 145.948 20.6603 146.838 20.8692C147.728 21.069 148.401 21.3324 148.855 21.6411C149.309 21.9499 149.618 22.3313 149.773 22.7763C149.927 23.2213 150 23.7571 150 24.3837C150 25.0558 149.918 25.637 149.746 26.1455C149.573 26.6541 149.255 27.0446 148.773 27.3443C148.292 27.644 147.61 27.8619 146.72 27.9982C145.83 28.1344 144.676 28.207 143.249 28.207L143.267 28.2161Z" fill="white"/>
<path d="M44.285 24.52V13.1228C44.285 12.587 44.285 12.0784 44.2668 11.6152H47.1016C47.1016 11.706 47.1016 11.9512 47.0925 12.369C47.0925 12.7867 47.0743 13.2681 47.0562 13.822C47.038 14.376 47.0289 14.9209 47.0198 15.4749C47.0198 16.0197 47.0016 16.5011 46.9835 16.9188C46.9653 17.3366 46.9653 17.5908 46.9653 17.6907L46.7927 18.5171L47.0562 21.5049V25.7641C47.0562 26.1456 47.0562 26.4997 47.0653 26.8448C47.0653 27.1899 47.0743 27.5532 47.0743 27.9437H44.2577C44.2759 27.4079 44.2759 26.8902 44.2759 26.3908V24.5109L44.285 24.52ZM58.459 22.9943V25.7914C58.459 26.1365 58.459 26.4907 58.4681 26.8358C58.4681 27.1809 58.4772 27.5532 58.4772 27.9528H55.706C55.7242 27.5895 55.7242 27.2535 55.7242 26.9447V21.178C55.7242 20.4606 55.6606 19.8794 55.5424 19.4071C55.4152 18.944 55.1972 18.5625 54.8883 18.281C54.5793 17.9995 54.1432 17.7906 53.589 17.6726C53.0347 17.5545 52.3169 17.4909 51.4265 17.4909C50.5361 17.4909 49.8365 17.5545 49.2641 17.6726C48.6916 17.7906 48.2464 18.0086 47.9193 18.3083C47.5922 18.608 47.3651 19.0166 47.2379 19.5343C47.1107 20.0519 47.0562 20.7058 47.0562 21.514L46.0113 20.8602C46.0567 19.843 46.2112 18.9621 46.4656 18.2175C46.7291 17.4728 47.1016 16.8643 47.5922 16.3921C48.0829 15.9198 48.728 15.5657 49.5457 15.3296C50.3635 15.0934 51.3629 14.9845 52.535 14.9845C53.7071 14.9845 54.7156 15.0753 55.4879 15.2569C56.2602 15.4385 56.869 15.7291 57.3142 16.1287C57.7594 16.5283 58.0683 17.0459 58.2319 17.6726C58.3954 18.2992 58.4863 19.0439 58.4863 19.9248V20.7693C58.4863 21.0509 58.4863 21.3687 58.4772 21.7047C58.4772 22.0498 58.4681 22.4767 58.4681 23.0034L58.459 22.9943Z" fill="white"/>
<path d="M68.7988 28.2161C67.3269 28.2161 66.1094 28.1162 65.1281 27.9073C64.1559 27.7075 63.3836 27.3625 62.8203 26.8902C62.2569 26.418 61.8572 25.7732 61.6118 24.9559C61.3665 24.1385 61.2393 23.1305 61.2393 21.9227V21.2688C61.2393 20.0428 61.3574 19.0348 61.6028 18.2265C61.839 17.4183 62.2479 16.7826 62.8021 16.3012C63.3563 15.8199 64.1196 15.493 65.0736 15.2841C66.0276 15.0752 67.227 14.9753 68.6716 14.9753C70.1163 14.9753 71.3247 15.0752 72.2515 15.2841C73.1783 15.493 73.9233 15.829 74.4685 16.3012C75.0136 16.7735 75.4043 17.4183 75.6496 18.2265C75.8859 19.0348 76.0131 20.0519 76.0131 21.2688C76.0313 21.3959 76.0312 21.5322 76.0222 21.6684C76.0131 21.8046 76.0131 21.9317 76.0131 22.0498V22.4221H63.1928V20.3879H74.7047L73.151 21.8046V20.9055C73.151 20.179 73.0965 19.5706 72.9784 19.0711C72.8603 18.5807 72.6513 18.1902 72.3424 17.9177C72.0334 17.6453 71.5882 17.4455 71.0067 17.3184C70.4252 17.1912 69.6529 17.1367 68.6898 17.1367C67.7267 17.1367 66.9362 17.1912 66.3184 17.3093C65.7005 17.4273 65.2281 17.6362 64.901 17.9541C64.5739 18.2719 64.3467 18.6987 64.2195 19.2436C64.0923 19.7885 64.0287 20.4878 64.0287 21.3324V21.6775C64.0287 22.5039 64.0923 23.1941 64.2195 23.7299C64.3467 24.2657 64.5739 24.6925 64.91 25.0104C65.2462 25.3282 65.7278 25.5462 66.3638 25.6733C66.9998 25.8004 67.8175 25.8731 68.8261 25.8731C69.8346 25.8731 70.6069 25.8277 71.1884 25.746C71.7699 25.6551 72.2151 25.528 72.5241 25.3373C72.833 25.1557 73.0329 24.9195 73.1328 24.638C73.2328 24.3565 73.2873 24.0205 73.2873 23.6481L76.0222 23.7389C76.0222 24.5381 75.9222 25.2192 75.7132 25.7914C75.5043 26.3635 75.1499 26.8176 74.6229 27.1808C74.0959 27.535 73.3781 27.7984 72.4514 27.9709C71.5246 28.1344 70.3162 28.2252 68.817 28.2252L68.7988 28.2161Z" fill="white"/>
<path d="M78.8207 24.6289V16.5736C78.8207 16.1195 78.8207 15.6745 78.8025 15.2386H81.4283L81.4738 17.6815L81.3466 18.508L81.61 21.7137V25.9638C81.61 26.3362 81.61 26.6813 81.6191 26.99C81.6191 27.2988 81.6282 27.6167 81.6282 27.9436H78.8116C78.8297 27.6257 78.8297 27.2988 78.8297 26.981V24.6198L78.8207 24.6289ZM80.5652 20.9599C80.6106 19.9519 80.7469 19.0801 80.9831 18.3263C81.2193 17.5726 81.5646 16.955 82.0189 16.4555C82.4732 15.9651 83.0729 15.5928 83.7998 15.3385C84.5266 15.0842 85.4171 14.9662 86.4619 14.9662C87.5068 14.9662 88.3427 15.0388 88.9969 15.1751C89.6511 15.3113 90.169 15.5474 90.5415 15.8653C90.9141 16.1831 91.1776 16.619 91.332 17.1639C91.4865 17.7088 91.5592 18.4081 91.5592 19.2526V19.9519C91.5592 20.188 91.5592 20.4241 91.541 20.6693L88.897 20.7147V20.0336C88.897 19.5069 88.8606 19.0892 88.7789 18.7713C88.6971 18.4535 88.5426 18.1901 88.3064 17.9994C88.0702 17.7996 87.734 17.6725 87.2797 17.5998C86.8254 17.5272 86.2257 17.4908 85.4625 17.4908C84.6993 17.4908 84.0996 17.5453 83.5908 17.6634C83.0911 17.7814 82.6913 17.9903 82.4005 18.2991C82.1098 18.6079 81.9008 19.0347 81.7827 19.5796C81.6555 20.1245 81.5919 20.8419 81.5919 21.7319L80.5652 20.969V20.9599Z" fill="white"/>
<path d="M94.1123 24.6289V16.5736C94.1123 16.1196 94.1123 15.6746 94.0941 15.2387H96.72L96.7654 17.6816L96.6382 18.508L96.9017 21.4958V25.9639C96.9017 26.3362 96.9017 26.6813 96.9108 26.9901C96.9108 27.2988 96.9198 27.6167 96.9198 27.9436H94.1032C94.1214 27.6258 94.1214 27.2988 94.1214 26.981V24.6198L94.1123 24.6289ZM106.742 21.5049V26.2181C106.742 26.7267 106.742 27.2988 106.76 27.9436H103.989C104.007 27.5985 104.007 27.2625 104.007 26.9537V20.5422C104.007 19.7431 103.907 19.1255 103.716 18.6896C103.516 18.2537 103.18 17.9449 102.689 17.7633C102.199 17.5817 101.517 17.4909 100.645 17.4909C99.9273 17.4909 99.3276 17.5544 98.8461 17.6725C98.3645 17.7905 97.9647 18.0085 97.674 18.3082C97.3832 18.6079 97.1833 19.0165 97.0652 19.5342C96.9471 20.0518 96.8926 20.7057 96.8926 21.5139L95.8841 20.8601C95.9386 19.8702 96.093 19.0075 96.3293 18.2809C96.5655 17.5544 96.9198 16.946 97.3741 16.4465C97.8284 15.947 98.4281 15.5838 99.155 15.3476C99.8819 15.1115 100.763 14.9844 101.799 14.9844C103.098 14.9844 104.107 15.1297 104.825 15.4112C105.542 15.6927 106.051 16.1559 106.351 16.7825C106.651 17.4182 106.796 18.2537 106.796 19.3071L106.578 19.8339L106.733 21.5139L106.742 21.5049ZM116.664 23.3212V26.2363C116.664 26.7358 116.664 27.3079 116.682 27.9527H113.865C113.883 27.6076 113.883 27.2716 113.883 26.9628V20.5513C113.883 19.7521 113.783 19.1346 113.593 18.6987C113.393 18.2628 113.057 17.954 112.566 17.7724C112.075 17.5908 111.403 17.4999 110.549 17.4999C109.831 17.4999 109.24 17.5635 108.759 17.6816C108.277 17.8087 107.896 18.0176 107.605 18.3173C107.314 18.617 107.096 19.0256 106.96 19.5433C106.824 20.0609 106.751 20.7148 106.751 21.523L105.815 20.8692C105.842 19.8974 105.979 19.0438 106.206 18.3173C106.442 17.5908 106.778 16.9823 107.232 16.4828C107.687 15.9924 108.268 15.6201 108.995 15.3658C109.713 15.1206 110.603 14.9935 111.648 14.9935C112.957 14.9935 113.983 15.1388 114.719 15.4294C115.455 15.72 115.964 16.1922 116.255 16.837C116.546 17.4818 116.691 18.3354 116.691 19.3798V20.3606C116.691 20.7239 116.691 21.1507 116.682 21.6229C116.682 22.1042 116.673 22.6673 116.673 23.3302L116.664 23.3212Z" fill="white"/>
<path d="M126.994 28.2161C125.522 28.2161 124.305 28.1162 123.324 27.9073C122.351 27.7075 121.579 27.3625 121.016 26.8902C120.452 26.418 120.053 25.7732 119.807 24.9559C119.562 24.1385 119.435 23.1305 119.435 21.9227V21.2688C119.435 20.0428 119.553 19.0348 119.798 18.2265C120.034 17.4183 120.443 16.7826 120.998 16.3012C121.552 15.8199 122.315 15.493 123.269 15.2841C124.223 15.0752 125.422 14.9753 126.867 14.9753C128.312 14.9753 129.52 15.0752 130.447 15.2841C131.374 15.493 132.119 15.829 132.664 16.3012C133.209 16.7735 133.6 17.4183 133.845 18.2265C134.081 19.0348 134.209 20.0519 134.209 21.2688C134.227 21.3959 134.227 21.5322 134.218 21.6684C134.209 21.8046 134.209 21.9317 134.209 22.0498V22.4221H121.388V20.3879H132.9L131.346 21.8046V20.9055C131.346 20.179 131.292 19.5706 131.174 19.0711C131.056 18.5807 130.847 18.1902 130.538 17.9177C130.229 17.6453 129.784 17.4455 129.202 17.3184C128.621 17.1912 127.848 17.1367 126.885 17.1367C125.922 17.1367 125.132 17.1912 124.514 17.3093C123.896 17.4273 123.424 17.6362 123.096 17.9541C122.769 18.2719 122.542 18.6987 122.415 19.2436C122.288 19.7885 122.224 20.4878 122.224 21.3324V21.6775C122.224 22.5039 122.288 23.1941 122.415 23.7299C122.542 24.2657 122.769 24.6925 123.106 25.0104C123.442 25.3282 123.923 25.5462 124.559 25.6733C125.195 25.8004 126.013 25.8731 127.022 25.8731C128.03 25.8731 128.802 25.8277 129.384 25.746C129.965 25.6551 130.411 25.528 130.72 25.3373C131.028 25.1557 131.228 24.9195 131.328 24.638C131.428 24.3565 131.483 24.0205 131.483 23.6481L134.218 23.7389C134.218 24.5381 134.118 25.2192 133.909 25.7914C133.7 26.3635 133.345 26.8176 132.818 27.1808C132.291 27.535 131.574 27.7984 130.647 27.9709C129.72 28.1344 128.512 28.2252 127.012 28.2252L126.994 28.2161Z" fill="white"/>
<path d="M143.267 28.2161C141.75 28.2161 140.532 28.1525 139.606 28.0254C138.679 27.8983 137.961 27.6803 137.452 27.3715C136.943 27.0628 136.589 26.6178 136.407 26.0456C136.217 25.4826 136.126 24.747 136.126 23.8388L138.833 23.7753V24.084C138.833 24.4655 138.888 24.7833 138.988 25.0467C139.088 25.31 139.288 25.5098 139.587 25.6551C139.887 25.8004 140.342 25.9094 140.941 25.973C141.541 26.0366 142.331 26.0729 143.313 26.0729C144.176 26.0729 144.866 26.0456 145.384 25.9821C145.911 25.9276 146.302 25.8277 146.565 25.7096C146.829 25.5825 147.002 25.4281 147.092 25.2374C147.183 25.0467 147.22 24.8196 147.22 24.5381C147.22 24.2566 147.174 24.0568 147.074 23.8752C146.974 23.6935 146.784 23.5301 146.475 23.3848C146.166 23.2395 145.693 23.1123 145.057 23.0034C144.412 22.8944 143.558 22.7854 142.477 22.6855C141.168 22.5584 140.105 22.3949 139.288 22.2133C138.47 22.0316 137.843 21.7955 137.407 21.5049C136.971 21.2143 136.671 20.851 136.526 20.4151C136.371 19.9792 136.298 19.4434 136.298 18.7986C136.298 18.1175 136.389 17.5272 136.58 17.0368C136.771 16.5464 137.098 16.1559 137.57 15.8562C138.043 15.5566 138.706 15.3386 139.56 15.1933C140.414 15.048 141.496 14.9753 142.804 14.9753C144.249 14.9753 145.402 15.048 146.284 15.1842C147.165 15.3204 147.838 15.5566 148.301 15.8835C148.764 16.2104 149.091 16.6372 149.264 17.1458C149.437 17.6635 149.528 18.3082 149.528 19.0802L146.774 19.1437V18.835C146.774 18.5444 146.729 18.2901 146.629 18.0721C146.538 17.8542 146.347 17.6816 146.075 17.5636C145.802 17.4364 145.393 17.3456 144.866 17.282C144.339 17.2185 143.622 17.1821 142.74 17.1821C141.95 17.1821 141.314 17.2094 140.814 17.273C140.314 17.3274 139.933 17.4183 139.66 17.5272C139.388 17.6362 139.197 17.7906 139.106 17.9722C139.015 18.1629 138.961 18.3809 138.961 18.6261C138.961 18.8713 138.997 19.0802 139.079 19.2618C139.16 19.4434 139.342 19.5887 139.624 19.7159C139.905 19.843 140.342 19.9611 140.923 20.061C141.505 20.1609 142.304 20.2608 143.322 20.3425C144.776 20.4878 145.948 20.6603 146.838 20.8692C147.728 21.069 148.401 21.3324 148.855 21.6411C149.309 21.9499 149.618 22.3313 149.773 22.7763C149.927 23.2213 150 23.7571 150 24.3837C150 25.0558 149.918 25.637 149.746 26.1455C149.573 26.6541 149.255 27.0446 148.773 27.3443C148.292 27.644 147.61 27.8619 146.72 27.9982C145.83 28.1344 144.676 28.207 143.249 28.207L143.267 28.2161Z" fill="white"/>
</svg>
