<svg width="40" height="40" viewBox="0 0 40 40" fill="none" xmlns="http://www.w3.org/2000/svg">
<g clip-path="url(#clip0_102_583)">
<path fill-rule="evenodd" clip-rule="evenodd" d="M23.4745 11.2857L16.3408 13.2949L15.0372 11.9202L22.5404 9.94952L23.4745 11.2857Z" fill="#0373FF"/>
<path fill-rule="evenodd" clip-rule="evenodd" d="M23.4745 11.2857L16.3408 13.2949L15.0372 11.9202L22.5404 9.94952L23.4745 11.2857Z" fill="#0373FF"/>
<path fill-rule="evenodd" clip-rule="evenodd" d="M26.4819 10.7186L19.4714 0L0 1.16318L2.48396 3.64336L18.2705 1.76881L24.5112 11.2088L26.4819 10.7186Z" fill="#0373FF"/>
<path fill-rule="evenodd" clip-rule="evenodd" d="M26.4819 10.7186L19.4714 0L0 1.16318L2.48396 3.64336L18.2705 1.76881L24.5112 11.2088L26.4819 10.7186Z" fill="#0373FF"/>
<path fill-rule="evenodd" clip-rule="evenodd" d="M18.8863 4.66233L6.65128 6.77721L4.53683 4.54697L17.6957 2.93198L18.8863 4.66233Z" fill="#0373FF"/>
<path fill-rule="evenodd" clip-rule="evenodd" d="M18.8863 4.66233L6.65128 6.77721L4.53683 4.54697L17.6957 2.93198L18.8863 4.66233Z" fill="#0373FF"/>
<path fill-rule="evenodd" clip-rule="evenodd" d="M20.3849 6.81568L10.0077 9.20933L8.46805 7.57511L19.574 5.6525L20.3849 6.81568Z" fill="#0373FF"/>
<path fill-rule="evenodd" clip-rule="evenodd" d="M20.3849 6.81568L10.0077 9.20933L8.46805 7.57511L19.574 5.6525L20.3849 6.81568Z" fill="#0373FF"/>
<path fill-rule="evenodd" clip-rule="evenodd" d="M21.8938 9.01706L13.3128 11.2665L11.999 9.87263L21.0521 7.78659L21.8938 9.01706Z" fill="#0373FF"/>
<path fill-rule="evenodd" clip-rule="evenodd" d="M21.8938 9.01706L13.3128 11.2665L11.999 9.87263L21.0521 7.78659L21.8938 9.01706Z" fill="#0373FF"/>
<path fill-rule="evenodd" clip-rule="evenodd" d="M40 11.6414L19.4714 14.5446L18.9377 13.641L28.155 11.3434L24.9423 6.28696L30.331 6.21005L38.563 10.7859L39.8563 11.353L40 11.6414Z" fill="#0373FF"/>
<path fill-rule="evenodd" clip-rule="evenodd" d="M40 11.6414L19.4714 14.5446L18.9377 13.641L28.155 11.3434L24.9423 6.28696L30.331 6.21005L38.563 10.7859L39.8563 11.353L40 11.6414Z" fill="#0373FF"/>
<path fill-rule="evenodd" clip-rule="evenodd" d="M38.0908 13.0257L34.1186 25.4362L26.9027 25.2632L14.1545 40L10.603 22.0043L20.4054 16.1788L38.0908 13.0257Z" fill="#0373FF"/>
<path fill-rule="evenodd" clip-rule="evenodd" d="M38.0908 13.0257L34.1186 25.4362L26.9027 25.2632L14.1545 40L10.603 22.0043L20.4054 16.1788L38.0908 13.0257Z" fill="#0373FF"/>
</g>
<defs>
<clipPath id="clip0_102_583">
<rect width="40" height="40" fill="white"/>
</clipPath>
</defs>
</svg>
