<svg width="37" height="36" viewBox="0 0 37 36" fill="none" xmlns="http://www.w3.org/2000/svg">
<path d="M21.272 0C21.8021 0 22.3106 0.210507 22.6856 0.585255L33.2136 11.1053C33.589 11.4805 33.7999 11.9894 33.7999 12.5201V31.8C33.7999 34.1196 31.8819 36 29.516 36H7.48395C5.11796 36 3.19995 34.1196 3.19995 31.8V4.2C3.19995 1.8804 5.11796 0 7.48395 0H21.272Z" fill="#4586F9"/>
<g filter="url(#filter0_d_391_254823)">
<path d="M32.0549 10.8391C32.3679 11.1547 32.1443 11.6912 31.6999 11.6912H26.6C24.2804 11.6912 22.1879 9.65094 22.1879 7.38927V2.10532C22.1879 1.65889 22.7285 1.43625 23.0429 1.75321L32.0549 10.8391Z" fill="white" fill-opacity="0.24" shape-rendering="crispEdges"/>
</g>
<path fill-rule="evenodd" clip-rule="evenodd" d="M9.5 15.2912H22.1V16.8662H9.5V15.2912ZM9.5 18.4412H22.1V20.0162H9.5V18.4412ZM9.5 21.5912H22.1V23.1662H9.5V21.5912ZM9.5 24.7412H15.8V26.3162H9.5V24.7412Z" fill="white"/>
<defs>
<filter id="filter0_d_391_254823" x="20.1879" y="1.60432" width="14.0129" height="14.0869" filterUnits="userSpaceOnUse" color-interpolation-filters="sRGB">
<feFlood flood-opacity="0" result="BackgroundImageFix"/>
<feColorMatrix in="SourceAlpha" type="matrix" values="0 0 0 0 0 0 0 0 0 0 0 0 0 0 0 0 0 0 127 0" result="hardAlpha"/>
<feOffset dy="2"/>
<feGaussianBlur stdDeviation="1"/>
<feComposite in2="hardAlpha" operator="out"/>
<feColorMatrix type="matrix" values="0 0 0 0 0 0 0 0 0 0 0 0 0 0 0 0 0 0 0.04 0"/>
<feBlend mode="normal" in2="BackgroundImageFix" result="effect1_dropShadow_391_254823"/>
<feBlend mode="normal" in="SourceGraphic" in2="effect1_dropShadow_391_254823" result="shape"/>
</filter>
</defs>
</svg>
